<?xml version="1.0" encoding="UTF-8"?>
<svg id="Capa_1" data-name="Capa 1" xmlns="http://www.w3.org/2000/svg" viewBox="0 0 393.64 442.51">
  <path d="m158.15,93.77h137.26v78.44h-19.69v-.08c0-21.62-17.52-39.14-39.14-39.14h0v78.44h98.05V54.56H118.94c0,21.66,17.56,39.22,39.22,39.22Z"/>
  <path d="m177.76,233.28c0,20.42,16.55,36.98,36.98,36.98h72.68l-50.82,78.44c0,21.66,17.56,39.22,39.22,39.22h58.83v-39.22h-52.62c2.02-1.86,3.87-3.96,5.43-6.37l47.18-72.06v-39.22h-156.87v2.24Z"/>
  <path d="m99.33,211.43h117.66v-98.05h-39.22v58.83h-19.61v-39.22h-39.22v39.22h-19.61V54.56c-21.66,0-39.22,17.56-39.22,39.22v117.66h39.22Z"/>
  <path d="m99.31,387.91h70.83c27.07,0,49.02-21.95,49.02-49.02h0c0-23.8-16.97-43.64-39.47-48.09.16-1.5.25-3.02.25-4.57v-6.44c0-26.93-21.83-48.76-48.76-48.76H60.11v117.68c0,21.65,17.55,39.2,39.2,39.2Z"/>
  <path d="m354.41,15.67H20.11v411.18h353.42V15.67h-19.12Zm0,392.05H39.23V34.79h315.17v372.93Z"/>
</svg>