<?xml version="1.0" encoding="UTF-8"?>
<svg id="Capa_1" data-name="Capa 1" xmlns="http://www.w3.org/2000/svg" viewBox="0 0 703.85 304.65">
  <g>
    <path d="m165.64,113.88h137.26s0,0,0,0v78.44s0,0,0,0h-19.69s0,0,0,0v-.08c0-21.62-17.52-39.14-39.14-39.14h0s0,0,0,0v78.44s0,0,0,0h98.05s0,0,0,0V74.67s0,0,0,0H126.42s0,0,0,0c0,21.66,17.56,39.22,39.22,39.22Z"/>
    <path d="m479.39,76.91c0,20.42,16.55,36.98,36.98,36.98h72.68s0,0,0,0l-50.82,78.44s0,0,0,0c0,21.66,17.56,39.22,39.22,39.22h58.83s0,0,0,0v-39.22s0,0,0,0h-52.62s0,0,0,0c2.02-1.86,3.87-3.96,5.43-6.37l47.18-72.06s0,0,0,0v-39.22s0,0,0,0h-156.87s0,0,0,0v2.24Z"/>
    <path d="m106.81,231.54h117.66s0,0,0,0v-98.05s0,0,0,0h-39.22s0,0,0,0v58.83s0,0,0,0h-19.61s0,0,0,0v-39.22s0,0,0,0h-39.22s0,0,0,0v39.22s0,0,0,0h-19.61s0,0,0,0v-117.66s0,0,0,0c-21.66,0-39.22,17.56-39.22,39.22v117.66s0,0,0,0h39.22Z"/>
    <path d="m400.93,231.54h70.83c27.07,0,49.02-21.95,49.02-49.02h0c0-23.8-16.97-43.64-39.47-48.09,0,0,0,0,0,0,.16-1.5.25-3.02.25-4.57v-6.44c0-26.93-21.83-48.76-48.76-48.76h-71.07s0,0,0,0v117.68c0,21.65,17.55,39.2,39.2,39.2Z"/>
  </g>
  <path d="m663.35,40.11v224.44H40.51V40.11h622.84m20-20H20.51v264.44h662.84V20.11h0Z"/>
</svg>